<svg xmlns="http://www.w3.org/2000/svg" viewBox="0 0 984.49 984.49"><defs><style>.a{fill:#f9f9f9;}.b{fill:#1c1c33;}</style></defs><title>AP logo 4</title><path class="a" d="M992.18,500.57C992.18,723,844.63,911,642.05,972a492.29,492.29,0,0,1-132.61,20.74c-3.16.06-6.32.09-9.5.09a490.25,490.25,0,0,1-289.79-94.31C87.43,809,7.69,664.11,7.69,500.57,7.69,228.72,228.07,8.33,499.94,8.33q4.77,0,9.5.09a493.29,493.29,0,0,1,106.64,13.7C749.85,54.48,862.29,141.48,928.43,258.17q6.15,10.8,11.72,21.91A490.06,490.06,0,0,1,992.18,500.57Z" transform="translate(-7.69 -8.33)"/><rect class="b" x="210.2" y="284.69" width="283.88" height="56.78"/><polygon class="b" points="494.08 477.73 210.2 477.73 210.2 727.55 266.97 727.55 266.99 534.49 437.3 534.51 437.3 727.55 494.08 727.55 494.08 477.73"/><polygon class="b" points="528.14 284.69 528.14 341.47 755.25 341.47 755.25 398.25 812.02 398.25 812.02 284.69 528.14 284.69"/><polygon class="b" points="812.02 534.51 812.02 477.73 528.14 477.73 528.14 727.55 584.92 727.55 584.92 534.51 812.02 534.51"/></svg>