<?xml version="1.0" encoding="utf-8"?>
<!-- Generator: Adobe Illustrator 23.0.2, SVG Export Plug-In . SVG Version: 6.00 Build 0)  -->
<svg version="1.1" id="Réteg_1" xmlns="http://www.w3.org/2000/svg" xmlns:xlink="http://www.w3.org/1999/xlink" x="0px" y="0px"
	 viewBox="0 0 200 200" style="enable-background:new 0 0 200 200;" xml:space="preserve">
<style type="text/css">
	.st0{fill:#292929;}
	.st1{fill:#EDEDED;}
</style>
<g id="dark">
	<path class="st0" d="M190.28,103.29l-86.03,86.03c-1.81,1.81-4.76,1.81-6.58,0l-23.84-23.84l-7.11-7.11l-31.24-31.25l-23.83-23.83
		c-1.82-1.82-1.82-4.76,0-6.58l23.83-23.83l31.46-31.47l6.9-6.89l23.83-23.84c1.82-1.81,4.77-1.81,6.58,0l23.84,23.84l38.36,38.36
		l23.83,23.83C192.1,98.53,192.1,101.47,190.28,103.29z"/>
	<path class="st0" d="M166.45,39.17v121.66c0,2.57-2.08,4.65-4.65,4.65H40.13c-2.57,0-4.65-2.08-4.65-4.65V39.17
		c0-2.57,2.08-4.65,4.65-4.65h121.66C164.36,34.52,166.45,36.6,166.45,39.17z"/>
	<circle class="st1" cx="100.96" cy="100" r="52.11"/>
	<path class="st0" d="M121.32,99.88c0,22.07-12.2,41.29-30.22,51.29h-0.01c-7.31,4.06-15.56,6.6-24.37,7.2
		c-1.33,0.09-2.67,0.13-4.02,0.13c-9.83,0-19.09-2.41-27.22-6.68v-24.7l-23.83-23.83c-1.82-1.82-1.82-4.76,0-6.58l23.83-23.83V47.95
		c8.13-4.27,17.39-6.69,27.22-6.69c1.43,0,2.84,0.05,4.24,0.15c8.85,0.64,17.14,3.23,24.47,7.35c0,0.01,0.01,0.01,0.01,0.01
		C109.26,58.82,121.32,77.94,121.32,99.88z"/>
</g>
</svg>
